<mxfile host="app.diagrams.net" modified="2024-05-23T10:39:26.494Z" agent="Mozilla/5.0 (Windows NT 10.0; Win64; x64; rv:126.0) Gecko/20100101 Firefox/126.0" etag="Vwere1XWtVFwh52OXp2s" version="24.4.6" type="github">
  <diagram name="Страница — 1" id="DUjbO_lCwUIh7EZs8qsn">
    <mxGraphModel dx="573" dy="547" grid="1" gridSize="10" guides="1" tooltips="1" connect="1" arrows="1" fold="1" page="1" pageScale="1" pageWidth="827" pageHeight="1169" math="0" shadow="0">
      <root>
        <mxCell id="0" />
        <mxCell id="1" parent="0" />
        <mxCell id="svQDPKIYkcb3EGDweqrt-36" style="edgeStyle=orthogonalEdgeStyle;rounded=0;orthogonalLoop=1;jettySize=auto;html=1;exitX=0.5;exitY=1;exitDx=0;exitDy=0;entryX=0.5;entryY=0;entryDx=0;entryDy=0;" edge="1" parent="1" source="svQDPKIYkcb3EGDweqrt-1" target="svQDPKIYkcb3EGDweqrt-4">
          <mxGeometry relative="1" as="geometry" />
        </mxCell>
        <mxCell id="svQDPKIYkcb3EGDweqrt-1" value="" style="rounded=0;whiteSpace=wrap;html=1;" vertex="1" parent="1">
          <mxGeometry x="140" y="90" width="120" height="60" as="geometry" />
        </mxCell>
        <mxCell id="svQDPKIYkcb3EGDweqrt-40" style="edgeStyle=orthogonalEdgeStyle;rounded=0;orthogonalLoop=1;jettySize=auto;html=1;exitX=0.5;exitY=1;exitDx=0;exitDy=0;entryX=0.5;entryY=0;entryDx=0;entryDy=0;" edge="1" parent="1" source="svQDPKIYkcb3EGDweqrt-2" target="svQDPKIYkcb3EGDweqrt-5">
          <mxGeometry relative="1" as="geometry" />
        </mxCell>
        <mxCell id="svQDPKIYkcb3EGDweqrt-2" value="" style="rounded=0;whiteSpace=wrap;html=1;" vertex="1" parent="1">
          <mxGeometry x="140" y="330" width="120" height="60" as="geometry" />
        </mxCell>
        <mxCell id="svQDPKIYkcb3EGDweqrt-3" value="" style="rounded=0;whiteSpace=wrap;html=1;" vertex="1" parent="1">
          <mxGeometry x="140" y="250" width="120" height="60" as="geometry" />
        </mxCell>
        <mxCell id="svQDPKIYkcb3EGDweqrt-4" value="" style="rounded=0;whiteSpace=wrap;html=1;" vertex="1" parent="1">
          <mxGeometry x="140" y="170" width="120" height="60" as="geometry" />
        </mxCell>
        <mxCell id="svQDPKIYkcb3EGDweqrt-5" value="" style="rounded=0;whiteSpace=wrap;html=1;" vertex="1" parent="1">
          <mxGeometry x="140" y="410" width="120" height="140" as="geometry" />
        </mxCell>
        <mxCell id="svQDPKIYkcb3EGDweqrt-6" value="" style="rounded=0;whiteSpace=wrap;html=1;" vertex="1" parent="1">
          <mxGeometry x="470" y="170" width="120" height="60" as="geometry" />
        </mxCell>
        <mxCell id="svQDPKIYkcb3EGDweqrt-7" value="" style="rounded=0;whiteSpace=wrap;html=1;" vertex="1" parent="1">
          <mxGeometry x="470" y="250" width="120" height="60" as="geometry" />
        </mxCell>
        <mxCell id="svQDPKIYkcb3EGDweqrt-8" value="" style="rounded=0;whiteSpace=wrap;html=1;" vertex="1" parent="1">
          <mxGeometry x="470" y="330" width="120" height="60" as="geometry" />
        </mxCell>
        <mxCell id="svQDPKIYkcb3EGDweqrt-9" value="" style="rounded=0;whiteSpace=wrap;html=1;" vertex="1" parent="1">
          <mxGeometry x="475" y="410" width="120" height="60" as="geometry" />
        </mxCell>
        <mxCell id="svQDPKIYkcb3EGDweqrt-10" value="Подготовка рабочего места" style="text;strokeColor=none;align=center;fillColor=none;html=1;verticalAlign=middle;whiteSpace=wrap;rounded=0;" vertex="1" parent="1">
          <mxGeometry x="170" y="105" width="60" height="30" as="geometry" />
        </mxCell>
        <mxCell id="svQDPKIYkcb3EGDweqrt-38" style="edgeStyle=orthogonalEdgeStyle;rounded=0;orthogonalLoop=1;jettySize=auto;html=1;entryX=0.5;entryY=0;entryDx=0;entryDy=0;" edge="1" parent="1" target="svQDPKIYkcb3EGDweqrt-2">
          <mxGeometry relative="1" as="geometry">
            <mxPoint x="200" y="315" as="sourcePoint" />
          </mxGeometry>
        </mxCell>
        <mxCell id="svQDPKIYkcb3EGDweqrt-11" value="&lt;div&gt;Установка&lt;/div&gt;&lt;div&gt;тубуса на рабочем месте&lt;br&gt; &lt;/div&gt;" style="text;strokeColor=none;align=center;fillColor=none;html=1;verticalAlign=middle;whiteSpace=wrap;rounded=0;" vertex="1" parent="1">
          <mxGeometry x="170" y="265" width="60" height="30" as="geometry" />
        </mxCell>
        <mxCell id="svQDPKIYkcb3EGDweqrt-37" style="edgeStyle=orthogonalEdgeStyle;rounded=0;orthogonalLoop=1;jettySize=auto;html=1;entryX=0.5;entryY=0;entryDx=0;entryDy=0;" edge="1" parent="1" target="svQDPKIYkcb3EGDweqrt-3">
          <mxGeometry relative="1" as="geometry">
            <mxPoint x="200" y="230" as="sourcePoint" />
          </mxGeometry>
        </mxCell>
        <mxCell id="svQDPKIYkcb3EGDweqrt-12" value="Входной контроль материалов и комплектующих" style="text;strokeColor=none;align=center;fillColor=none;html=1;verticalAlign=middle;whiteSpace=wrap;rounded=0;" vertex="1" parent="1">
          <mxGeometry x="150" y="185" width="100" height="30" as="geometry" />
        </mxCell>
        <mxCell id="svQDPKIYkcb3EGDweqrt-13" value="Отстыковывание частей без соединений" style="text;strokeColor=none;align=center;fillColor=none;html=1;verticalAlign=middle;whiteSpace=wrap;rounded=0;" vertex="1" parent="1">
          <mxGeometry x="155" y="342.5" width="90" height="35" as="geometry" />
        </mxCell>
        <mxCell id="svQDPKIYkcb3EGDweqrt-51" style="edgeStyle=orthogonalEdgeStyle;rounded=0;orthogonalLoop=1;jettySize=auto;html=1;entryX=0.5;entryY=0;entryDx=0;entryDy=0;" edge="1" parent="1" target="svQDPKIYkcb3EGDweqrt-7">
          <mxGeometry relative="1" as="geometry">
            <mxPoint x="530" y="230" as="sourcePoint" />
          </mxGeometry>
        </mxCell>
        <mxCell id="svQDPKIYkcb3EGDweqrt-15" value="Соединение модуля Jetson Nano и блока питания" style="text;strokeColor=none;align=center;fillColor=none;html=1;verticalAlign=middle;whiteSpace=wrap;rounded=0;" vertex="1" parent="1">
          <mxGeometry x="480" y="185" width="100" height="30" as="geometry" />
        </mxCell>
        <mxCell id="svQDPKIYkcb3EGDweqrt-52" style="edgeStyle=orthogonalEdgeStyle;rounded=0;orthogonalLoop=1;jettySize=auto;html=1;entryX=0.5;entryY=0;entryDx=0;entryDy=0;exitX=0.5;exitY=1;exitDx=0;exitDy=0;" edge="1" parent="1" source="svQDPKIYkcb3EGDweqrt-7" target="svQDPKIYkcb3EGDweqrt-8">
          <mxGeometry relative="1" as="geometry" />
        </mxCell>
        <mxCell id="svQDPKIYkcb3EGDweqrt-16" value="Соединение камеры и блока питания" style="text;strokeColor=none;align=center;fillColor=none;html=1;verticalAlign=middle;whiteSpace=wrap;rounded=0;" vertex="1" parent="1">
          <mxGeometry x="490" y="265" width="90" height="30" as="geometry" />
        </mxCell>
        <mxCell id="svQDPKIYkcb3EGDweqrt-53" style="edgeStyle=orthogonalEdgeStyle;rounded=0;orthogonalLoop=1;jettySize=auto;html=1;entryX=0.5;entryY=0;entryDx=0;entryDy=0;" edge="1" parent="1" target="svQDPKIYkcb3EGDweqrt-9">
          <mxGeometry relative="1" as="geometry">
            <mxPoint x="531" y="390" as="sourcePoint" />
          </mxGeometry>
        </mxCell>
        <mxCell id="svQDPKIYkcb3EGDweqrt-17" value="Соединение разъема камеры с модулем Jetson Nano " style="text;strokeColor=none;align=center;fillColor=none;html=1;verticalAlign=middle;whiteSpace=wrap;rounded=0;" vertex="1" parent="1">
          <mxGeometry x="476" y="345" width="110" height="30" as="geometry" />
        </mxCell>
        <mxCell id="svQDPKIYkcb3EGDweqrt-18" value="Выходной контроль" style="text;strokeColor=none;align=center;fillColor=none;html=1;verticalAlign=middle;whiteSpace=wrap;rounded=0;" vertex="1" parent="1">
          <mxGeometry x="501" y="425" width="60" height="30" as="geometry" />
        </mxCell>
        <mxCell id="svQDPKIYkcb3EGDweqrt-19" value="" style="rounded=0;whiteSpace=wrap;html=1;" vertex="1" parent="1">
          <mxGeometry x="470" y="90" width="120" height="60" as="geometry" />
        </mxCell>
        <mxCell id="svQDPKIYkcb3EGDweqrt-48" style="edgeStyle=orthogonalEdgeStyle;rounded=0;orthogonalLoop=1;jettySize=auto;html=1;exitX=0.5;exitY=0;exitDx=0;exitDy=0;entryX=0.5;entryY=1;entryDx=0;entryDy=0;" edge="1" parent="1" source="svQDPKIYkcb3EGDweqrt-20" target="svQDPKIYkcb3EGDweqrt-33">
          <mxGeometry relative="1" as="geometry">
            <mxPoint x="370" y="160" as="targetPoint" />
          </mxGeometry>
        </mxCell>
        <mxCell id="svQDPKIYkcb3EGDweqrt-20" value="" style="rounded=0;whiteSpace=wrap;html=1;" vertex="1" parent="1">
          <mxGeometry x="310" y="170" width="120" height="60" as="geometry" />
        </mxCell>
        <mxCell id="svQDPKIYkcb3EGDweqrt-50" style="edgeStyle=orthogonalEdgeStyle;rounded=0;orthogonalLoop=1;jettySize=auto;html=1;entryX=0.5;entryY=0;entryDx=0;entryDy=0;exitX=0.5;exitY=1;exitDx=0;exitDy=0;" edge="1" parent="1" source="svQDPKIYkcb3EGDweqrt-19" target="svQDPKIYkcb3EGDweqrt-6">
          <mxGeometry relative="1" as="geometry" />
        </mxCell>
        <mxCell id="svQDPKIYkcb3EGDweqrt-21" value="Соединение блока питания с корпусом" style="text;strokeColor=none;align=center;fillColor=none;html=1;verticalAlign=middle;whiteSpace=wrap;rounded=0;" vertex="1" parent="1">
          <mxGeometry x="500" y="100" width="70" height="40" as="geometry" />
        </mxCell>
        <mxCell id="svQDPKIYkcb3EGDweqrt-22" value="Соединение камеры с корпусом" style="text;strokeColor=none;align=center;fillColor=none;html=1;verticalAlign=middle;whiteSpace=wrap;rounded=0;" vertex="1" parent="1">
          <mxGeometry x="340" y="185" width="60" height="30" as="geometry" />
        </mxCell>
        <mxCell id="svQDPKIYkcb3EGDweqrt-23" value="" style="rounded=0;whiteSpace=wrap;html=1;" vertex="1" parent="1">
          <mxGeometry x="310" y="250" width="120" height="60" as="geometry" />
        </mxCell>
        <mxCell id="svQDPKIYkcb3EGDweqrt-46" style="edgeStyle=orthogonalEdgeStyle;rounded=0;orthogonalLoop=1;jettySize=auto;html=1;exitX=0.5;exitY=0;exitDx=0;exitDy=0;entryX=0.5;entryY=1;entryDx=0;entryDy=0;" edge="1" parent="1" source="svQDPKIYkcb3EGDweqrt-24" target="svQDPKIYkcb3EGDweqrt-23">
          <mxGeometry relative="1" as="geometry" />
        </mxCell>
        <mxCell id="svQDPKIYkcb3EGDweqrt-24" value="" style="rounded=0;whiteSpace=wrap;html=1;" vertex="1" parent="1">
          <mxGeometry x="310" y="330" width="120" height="60" as="geometry" />
        </mxCell>
        <mxCell id="svQDPKIYkcb3EGDweqrt-47" style="edgeStyle=orthogonalEdgeStyle;rounded=0;orthogonalLoop=1;jettySize=auto;html=1;entryX=0.5;entryY=1;entryDx=0;entryDy=0;" edge="1" parent="1" source="svQDPKIYkcb3EGDweqrt-25" target="svQDPKIYkcb3EGDweqrt-20">
          <mxGeometry relative="1" as="geometry" />
        </mxCell>
        <mxCell id="svQDPKIYkcb3EGDweqrt-25" value="Установка GoPro камеры в корпусе" style="text;strokeColor=none;align=center;fillColor=none;html=1;verticalAlign=middle;whiteSpace=wrap;rounded=0;" vertex="1" parent="1">
          <mxGeometry x="340" y="265" width="60" height="30" as="geometry" />
        </mxCell>
        <mxCell id="svQDPKIYkcb3EGDweqrt-26" value="Соединение Jetson Nano с корпусом" style="text;strokeColor=none;align=center;fillColor=none;html=1;verticalAlign=middle;whiteSpace=wrap;rounded=0;" vertex="1" parent="1">
          <mxGeometry x="340" y="345" width="60" height="30" as="geometry" />
        </mxCell>
        <mxCell id="svQDPKIYkcb3EGDweqrt-27" value="" style="rounded=0;whiteSpace=wrap;html=1;" vertex="1" parent="1">
          <mxGeometry x="310" y="410" width="120" height="60" as="geometry" />
        </mxCell>
        <mxCell id="svQDPKIYkcb3EGDweqrt-28" value="" style="rounded=0;whiteSpace=wrap;html=1;" vertex="1" parent="1">
          <mxGeometry x="310" y="490" width="120" height="60" as="geometry" />
        </mxCell>
        <mxCell id="svQDPKIYkcb3EGDweqrt-45" style="edgeStyle=orthogonalEdgeStyle;rounded=0;orthogonalLoop=1;jettySize=auto;html=1;entryX=0.5;entryY=1;entryDx=0;entryDy=0;" edge="1" parent="1" source="svQDPKIYkcb3EGDweqrt-29" target="svQDPKIYkcb3EGDweqrt-24">
          <mxGeometry relative="1" as="geometry" />
        </mxCell>
        <mxCell id="svQDPKIYkcb3EGDweqrt-29" value="&lt;div&gt;Установка модуля Jetson Nano внутрь корпуса&lt;br&gt;&lt;/div&gt;" style="text;strokeColor=none;align=center;fillColor=none;html=1;verticalAlign=middle;whiteSpace=wrap;rounded=0;" vertex="1" parent="1">
          <mxGeometry x="330" y="417.5" width="80" height="45" as="geometry" />
        </mxCell>
        <mxCell id="svQDPKIYkcb3EGDweqrt-43" style="edgeStyle=orthogonalEdgeStyle;rounded=0;orthogonalLoop=1;jettySize=auto;html=1;entryX=0.5;entryY=1;entryDx=0;entryDy=0;" edge="1" parent="1" target="svQDPKIYkcb3EGDweqrt-27">
          <mxGeometry relative="1" as="geometry">
            <mxPoint x="370" y="490" as="sourcePoint" />
          </mxGeometry>
        </mxCell>
        <mxCell id="svQDPKIYkcb3EGDweqrt-30" value="Сварка комплектующих для получения короба" style="text;strokeColor=none;align=center;fillColor=none;html=1;verticalAlign=middle;whiteSpace=wrap;rounded=0;" vertex="1" parent="1">
          <mxGeometry x="340" y="505" width="60" height="30" as="geometry" />
        </mxCell>
        <mxCell id="svQDPKIYkcb3EGDweqrt-42" style="edgeStyle=orthogonalEdgeStyle;rounded=0;orthogonalLoop=1;jettySize=auto;html=1;entryX=0;entryY=0.5;entryDx=0;entryDy=0;exitX=1;exitY=0.414;exitDx=0;exitDy=0;exitPerimeter=0;" edge="1" parent="1" source="svQDPKIYkcb3EGDweqrt-5" target="svQDPKIYkcb3EGDweqrt-28">
          <mxGeometry relative="1" as="geometry" />
        </mxCell>
        <mxCell id="svQDPKIYkcb3EGDweqrt-32" value="Установка комплектующих сварного корпуса на рабочем месте&amp;nbsp; " style="text;strokeColor=none;align=center;fillColor=none;html=1;verticalAlign=middle;whiteSpace=wrap;rounded=0;" vertex="1" parent="1">
          <mxGeometry x="145" y="435" width="110" height="80" as="geometry" />
        </mxCell>
        <mxCell id="svQDPKIYkcb3EGDweqrt-49" style="edgeStyle=orthogonalEdgeStyle;rounded=0;orthogonalLoop=1;jettySize=auto;html=1;exitX=1;exitY=0.5;exitDx=0;exitDy=0;entryX=0;entryY=0.5;entryDx=0;entryDy=0;" edge="1" parent="1" source="svQDPKIYkcb3EGDweqrt-33" target="svQDPKIYkcb3EGDweqrt-19">
          <mxGeometry relative="1" as="geometry" />
        </mxCell>
        <mxCell id="svQDPKIYkcb3EGDweqrt-33" value="" style="rounded=0;whiteSpace=wrap;html=1;" vertex="1" parent="1">
          <mxGeometry x="311" y="90" width="120" height="60" as="geometry" />
        </mxCell>
        <mxCell id="svQDPKIYkcb3EGDweqrt-34" value="Установка блока питания" style="text;strokeColor=none;align=center;fillColor=none;html=1;verticalAlign=middle;whiteSpace=wrap;rounded=0;" vertex="1" parent="1">
          <mxGeometry x="341" y="105" width="60" height="30" as="geometry" />
        </mxCell>
      </root>
    </mxGraphModel>
  </diagram>
</mxfile>
